<svg fill="none" height="60" viewBox="0 0 160 60" width="160" xmlns="http://www.w3.org/2000/svg" xmlns:xlink="http://www.w3.org/1999/xlink"><clipPath id="a"><path d="m0 0h160v60h-160z"/></clipPath><g clip-path="url(#a)" fill="#fff"><path d="m12.4875.217727c-3.00307.454413-5.88761 1.876923-8.10041 3.990943-3.12162 2.94381-4.662677 6.83593-4.3465629 10.92573.4544139 6.1049 4.6824429 10.9454 11.0046729 12.6643 1.7387.4741 5.8284.4741 8.0412 0 1.8769-.3952 4.5639-1.3435 5.5122-1.9165l.652-.3951v-5.5715c0-3.0821-.079-5.7098-.158-5.8481-.1383-.1778-1.225-.2371-4.801-.1976l-4.6232.0593-.0593 2.3708c-.0592 2.8253-.0395 2.8648 1.9758 2.8648h1.3632l-.0593 1.1262-.0592 1.1261-.8891.2766c-.573.1581-1.6003.2371-2.9636.1976-1.8572-.0593-2.2128-.1383-3.418-.7113-1.62005-.7903-3.08208-2.2128-3.81309-3.7341-.51369-1.0273-.57296-1.3434-.57296-3.2204 0-1.9559.03951-2.1733.63223-3.3784.79028-1.60037 2.39062-3.16118 3.95142-3.89219.9483-.4149 1.5015-.53345 3.1216-.59272 2.2523-.09878 3.5366.23709 5.0974 1.32373.4939.33587 1.0273.61247 1.1656.61247.3754 0 3.9119-3.5958 3.9119-3.99094 0-.8298-3.7736-3.00308-6.3815-3.694581-1.8572-.474171-4.5244-.6519849-6.184-.395142z"/><path d="m40.3252.237821c-.5532.691499-13.099 26.790679-13.0595 27.126479.0593.3754.2371.3952 2.8846.4545 1.62.0197 2.9635-.0396 3.1809-.1581.1975-.0988.7705-1.0274 1.2842-2.0745l.889-1.8769h5.5518 5.532l.9878 1.9757c.7113 1.4423 1.1064 1.9955 1.4226 2.0745.2568.0593 1.6596.079 3.1216.0593 2.5091-.0593 2.6672-.0791 2.7265-.4545.0395-.3556-12.5063-26.454737-13.0397-27.126479-.1186-.118543-.4545-.23708554-.7508-.23708554-.2964 0-.6322.11854254-.731.23708554zm2.3116 14.896879c.81 1.6991 1.5213 3.1611 1.541 3.2599.0395.0988-1.2644.1778-3.0031.1778-2.114 0-3.0821-.0592-3.0821-.2173 0-.2766 2.8253-6.3025 2.9636-6.3025.0593.0197.7705 1.4027 1.5806 3.0821z"/><path d="m62.4143.276614c-.3754.454414-4.5837 27.007986-4.3268 27.324086.2963.3556 5.1566.3754 5.4529 0 .0988-.1185.5532-2.9438 1.0076-6.2432.4545-3.3192.8496-6.0457.9089-6.105.0395-.0395 1.5608 2.8648 3.3587 6.4606l3.2797 6.5594.731-.0593.731-.0593 3.2994-6.5198c2.6475-5.2554 3.2995-6.4211 3.3982-6.026.0593.2766.4545 3.0426.8891 6.1643.4149 3.1018.8298 5.7493.9088 5.8678.0791.1383 1.0867.2174 2.7858.2174 2.2721 0 2.687-.0396 2.7858-.3162.1383-.3753-4.0305-26.652315-4.3269-27.205515-.0987-.197571-.3951-.33587069-.731-.33587069-.2963 0-.6915.15805669-.8495.33587069-.1581.197572-2.1931 4.050215-4.5046 8.554835-2.3116 4.50458-4.2478 8.25848-4.3269 8.33748-.0592.0791-2.0745-3.655-4.4453-8.29796-2.3906-4.64293-4.4058-8.55484-4.5244-8.69314-.2568-.3161142-1.2249-.2963571-1.5015.039514z"/><path d="m105.701.237174c-.336.335871-.336 27.047526 0 27.383326.336.3359 5.809.3359 6.026-.0197.079-.1186.198-3.5563.257-7.6263l.099-7.3891 8.179 7.8436c8.456 8.1004 8.496 8.1201 9.582 7.7052.277-.1185.316-1.5015.316-13.6917 0-10.29341-.059-13.632369-.237-13.810183-.296-.296357-5.433-.335873-5.887-.039516-.257.158057-.316 1.264459-.395 7.290379l-.099 7.13232-8.18-7.50771c-7.152-6.559361-8.258-7.50770278-8.811-7.50770278-.336 0-.712.09878648-.85.23708678z"/><path d="m147.251.197772c-6.164.968098-11.064 5.393698-12.269 11.064028-.455 2.193-.297 5.1566.395 7.2113 2.311 6.7569 9.167 10.6689 16.813 9.5822 2.904-.4149 7.172-1.8769 7.646-2.6277.257-.4149.198-11.0837-.079-11.3603-.336-.3359-9.068-.3359-9.404 0-.158.158-.237.9681-.237 2.3511 0 2.6474.079 2.7462 1.995 2.7462h1.363v1.1657 1.1854l-1.126.2173c-.612.1383-1.936.1976-2.904.1581-1.502-.0593-2.015-.1778-3.122-.6915-1.817-.8496-2.983-1.9757-3.852-3.7539-.672-1.3632-.731-1.62-.731-3.2006.019-3.5168 1.956-6.24326 5.374-7.52748.928-.35563 1.462-.4149 3.101-.35563 1.66.05928 2.154.1383 3.162.61247.652.31612 1.383.73102 1.62.9681.296.2766.573.37539.889.29636.573-.15806 3.912-3.51677 3.912-3.97118 0-.79029-4.011-3.02284-6.599-3.674825-1.897-.474171-4.327-.6322284-5.947-.395143z"/><path d="m93.4531.632424c-.3359.335871-.3359 26.652376 0 26.988276.3358.3358 5.7098.3358 6.0457 0 .3358-.3359.3358-26.652405 0-26.988276-.1581-.158057-1.1262-.237085-3.0229-.237085s-2.8648.079028-3.0228.237085z"/><path d="m41.9449 31.2955c-4.959 1.1261-8.8709 4.3268-10.7281 8.7326-.9681 2.2918-1.2249 5.8876-.6125 8.2783 1.1855 4.7022 4.7615 8.5548 9.3452 10.0761 9.7995 3.2797 19.8559-3.418 19.8756-13.1978.0198-6.2235-4.2873-11.795-10.4713-13.5731-1.8966-.5532-5.69-.7113-7.4089-.3161zm6.7174 6.8162c1.7584.8693 3.1019 2.2325 3.912 3.9316.5729 1.1855.6322 1.5016.6322 3.1019-.0198 1.9165-.3359 2.9241-1.4423 4.5244-.7903 1.1657-2.6277 2.4301-4.228 2.9043-3.8724 1.1854-8.1795-.5927-9.9378-4.1095-1.7387-3.497-.2964-8.0214 3.2006-10.0761 1.4423-.8496 2.3709-1.0471 4.5244-.9879 1.7979.0395 2.0942.0988 3.3389.7113z"/><path d="m69.9026 31.3152c-3.4575.7903-5.8876 2.9043-6.6384 5.8284-.6322 2.5289.1779 5.0183 2.2721 6.9545 1.4818 1.3435 2.7858 2.114 5.6505 3.3192 1.2843.5334 2.6475 1.2052 3.0624 1.4818 1.0076.6915 1.6596 1.9164 1.5213 2.8055-.4149 2.4894-3.9712 2.7265-8.0016.5334-.6718-.3754-1.4423-.6717-1.6992-.6717-.5531 0-.7902.2568-2.0744 2.3313-1.1855 1.9165-1.1855 1.9955.5136 3.1216 2.7858 1.8572 7.6658 2.7068 11.2221 1.956 5.9074-1.2447 9.029-6.3815 6.7174-11.064-1.1262-2.2721-3.2797-3.8921-7.6065-5.6308-3.0031-1.2052-4.07-1.8374-4.5639-2.6277-.731-1.2249-.3951-2.3708.8891-2.9833 1.3632-.652 3.2599-.2766 6.0259 1.1854.9088.4742 1.8572.8693 2.114.8693.3754 0 .7903-.4149 1.8769-1.8966 1.8375-2.4697 1.8177-2.5487-.9285-3.9515-1.0867-.5532-2.608-1.1656-3.3587-1.3632-1.8375-.4742-5.3345-.573-6.9941-.1976z"/><path d="m2.13518 31.908c-.2766.7113-.2766 25.7633 0 26.4746l.19758.5334 6.57912-.0988c7.23112-.079 7.64602-.1383 10.33302-1.4225 6.9149-3.2994 9.918-11.3406 6.6976-17.979-1.6793-3.4772-4.7812-6.0654-8.8907-7.4286-1.3237-.4347-1.7189-.4545-8.04114-.5335l-6.6779-.0593zm13.79052 6.0062c4.0107 1.8769 5.69 6.7174 3.7143 10.7874-1.5411 3.1414-4.149 4.4256-8.95 4.4453h-2.23254v-8.0214-8.0213l3.02284.079c2.9241.0593 3.0426.079 4.4454.731z"/><path d="m87.8812 31.7895c-.1186.2568-.1976 4.8207-.1976 13.4348 0 11.5777.0395 13.0595.3161 13.3361s1.3632.3161 9.0488.3161c6.5195 0 8.7915-.0593 8.9695-.2371.158-.1581.237-1.0274.237-2.6277s-.079-2.4697-.237-2.6277c-.178-.1778-1.778-.2371-6.0257-.2371h-5.7889v-2.6672-2.6672h4.6627c2.8249 0 4.8009-.0791 5.0379-.1976.336-.1976.376-.4347.376-2.6277 0-1.6201-.079-2.5091-.238-2.6672-.177-.1778-1.56-.2371-5.0376-.2371h-4.801v-2.4696-2.4697h5.7889c4.2477 0 5.8477-.0592 6.0257-.2371.158-.158.237-1.0273.237-2.6277 0-1.6003-.079-2.4696-.237-2.6276-.178-.1779-2.469-.2371-9.0881-.2371-8.535 0-8.8512.0197-9.0487.3754z"/></g></svg>